<?xml version="1.0" standalone="no"?>
<!DOCTYPE svg PUBLIC "-//W3C//DTD SVG 20010904//EN"
 "http://www.w3.org/TR/2001/REC-SVG-20010904/DTD/svg10.dtd">
<svg version="1.0" xmlns="http://www.w3.org/2000/svg"
 width="512.000000pt" height="512.000000pt" viewBox="0 0 512.000000 512.000000"
 preserveAspectRatio="xMidYMid meet">
<metadata>
Created by potrace 1.14, written by Peter Selinger 2001-2017
</metadata>
<g transform="translate(0.000000,512.000000) scale(0.100000,-0.100000)"
fill="#000000" stroke="none">
<path d="M278 4991 c-7 -2 -29 -10 -48 -19 -19 -8 -38 -14 -42 -14 -5 1 -8 -3
-8 -9 0 -7 -10 -20 -22 -30 -11 -11 -17 -19 -12 -19 5 0 2 -5 -6 -10 -8 -5
-16 -20 -18 -32 -7 -50 -8 -4564 -1 -4573 8 -11 9 -16 9 -39 0 -17 79 -99 101
-105 8 -2 20 -4 27 -4 6 0 12 -3 12 -6 0 -3 1032 -6 2293 -6 2023 0 2296 2
2312 15 10 8 19 13 21 10 2 -3 14 4 26 15 13 11 26 19 29 18 6 -2 44 73 44 87
0 3 3 10 6 15 3 6 5 1034 4 2285 -1 2191 -2 2276 -19 2310 -24 44 -52 72 -96
96 -34 17 -119 18 -2317 19 -1256 0 -2288 -2 -2295 -4z"/>
</g>
</svg>
